<?xml version="1.0" encoding="UTF-8"?>
<svg id="Calque_2" data-name="Calque 2" xmlns="http://www.w3.org/2000/svg" xmlns:xlink="http://www.w3.org/1999/xlink" viewBox="0 0 2478.2 2502.31">
  <defs>
    <style>
      .cls-1 {
        fill: none;
      }

      .cls-1, .cls-2 {
        stroke-width: 0px;
      }

      .cls-2 {
        fill: #fff;
      }

      .cls-3 {
        clip-path: url(#clippath);
      }
    </style>
    <clipPath id="clippath">
      <rect class="cls-1" x="0" width="2478.2" height="2502.31"/>
    </clipPath>
  </defs>
  <g id="Calque_1-2" data-name="Calque 1">
    <g class="cls-3">
      <path class="cls-2" d="m1243,1828.06c-99.85,182.4-200.1,364.52-300.2,546.75-23.74,43.15-48.11,85.99-78.21,127.51,8.96-209.58,17.9-419.21,26.86-628.8,5.2-127.88,10.42-255.76,15.62-383.64,2.25-66.53,3.05-133.15,7.43-199.58,1.78-26.64-6.02-37.91-31.42-46.84-287.82-101.02-575.12-203.42-862.54-305.47-6.83-2.43-13.54-5.15-20.52-14.09,34.49-3.42,68.93-7.03,103.42-10.23,248.5-23.15,497.01-46.22,745.53-69.2.59-.07,1.16-.07,1.73-.07,3.59,0,7.23.97,10.84,1.36,31.2-3.71,62.32-8.91,93.64-10.65,21.59-1.16,28.42-7.53,27.41-30.43-4.7-105.77-7.18-211.69-10.45-317.51-5.87-157.64-11.69-315.33-17.6-472.99-.17-4.11-1.02-8.22-1.54-12.35,2.01-.59,4.06-1.21,6.09-1.83,29.66,59.74,70.17,112.73,106.12,168.48,97,150.63,196.11,299.9,293.56,450.26-49.62,8.72-91.73,24.31-126.29,46.69-15.62-23.05-31.25-46.15-47.51-68.75-13.02-18.07-26.79-45.38-53.31-35.6-23.94,8.81-19.16,37.73-18.84,59.25,1.02,63.53,7.8,126.89,7.8,190.47,0,12.33-.22,24.71-.84,37.06-11.69,72.32-56.62,120.75-125.53,135.28-99.46,11.76-198.99,23.2-298.44,35.48-22.75,2.82-46.62,1.63-67.62,13.77-15.28,8.81-16.42,18.35-1.49,28.47,15.9,10.79,33.77,17.41,51.89,23.32,88.36,28.94,177.27,56.3,264.89,87.25,40.41,14.26,72.05,36.25,95.15,65.21,23.15,29.02,37.81,65.07,44.12,107.4,5.42,55.48-.82,110.84-1.93,166.25-.82,40.83-3.19,81.63-4.9,122.46-1.29,61.2-3.14,122.41-3.69,183.61-.2,22.31-8.1,54.82,17.7,61.2,25.13,6.24,35.18-25.65,46-45.36,11.61-21.12,23.17-42.21,34.69-63.33,19.34,22.7,43.48,42.44,72.37,59.17"/>
      <path class="cls-2" d="m2142.47,454.49c-109.33,112.38-232.98,205.18-375.96,271.65-.2.1-.45.2-.64.35-7.58-11.64-16.02-22.51-25.28-32.58-39.84-43.35-104.83-69.82-194.9-79.43,19.11-5.67,38.2-11.29,57.29-16.84,61.48-17.85,123.22-34.76,185.59-49.37,116.54-34.96,233.05-69.89,349.54-104.85,1.46,3.71,2.9,7.38,4.36,11.07"/>
      <path class="cls-2" d="m1649.05,1069.99c31.07-48.23,86.48-120.65,123.6-145.9-4.16-9.8-6.71-22.56-6.71-36.52,0-11.09,1.61-21.34,4.36-30.03v-.02c-1.14-4.53-2.43-8.99-3.74-13.34h-.02c-3.59-1.09-8.34-2.62-14.66-4.63-24.51-7.87-28.15-30.43-25.35-33.85,2.8-3.37,24.59-.94,24.59-.94h.1c-10.1-21.07-22.78-39.84-37.93-56.3-46.1-50.11-129.46-75.17-250.14-75.17-104.41,0-182.79,23.6-235.21,70.76-52.44,47.22-78.66,118-78.66,212.38,0,54.64,8.49,99.73,25.45,135.16,16.91,35.45,42.34,61.33,76.23,77.57-53.78,29.39-85.74,68.51-95.92,117.36-10.18,48.8-15.25,106.46-15.25,172.91,0,99.06,10.27,169.84,30.82,212.33,20.57,42.51,54.59,76.65,102.03,102.43,47.46,25.77,111.86,38.62,193.22,38.62s150.26-13.44,199.95-40.33c11.12-6.02,21.42-12.38,30.92-19.19.1-1.68.2-3.34.3-5,2.4-36.77-14.43-263.63-26.27-294.85-1.98-3.84-3.84-8.02-5.62-12.55-.84-1.56-1.29-2.87-1.46-3.96-19.68-53.9-27.71-146.94-38.6-187.23-.1-.37-.2-.67-.27-1.04-.42-1.36-.79-2.77-1.14-4.16-3.66-14.14-5.22-22.63-5.1-27.43-1.44-11.27-2.18-23.12-2.18-35.33,0-44.44,12.6-84.3,32.58-111.64,0-.02.02-.07.07-.1m-229.96-136.4c0-35.28,3.14-59.35,9.46-72.2,6.34-12.9,18.57-19.34,36.64-19.34s31.05,5.99,37.61,17.98c6.54,11.98,9.83,36.49,9.83,73.56v75.22c0,38.9-3.17,64.52-9.48,76.95-6.34,12.45-18.54,18.64-36.59,18.64s-29.41-6.34-36.64-18.99c-7.2-12.63-10.82-35.48-10.82-68.46v-83.36Zm98.96,596.54c0,48.38-3.37,79.45-10.18,93.22-6.78,13.77-19.88,20.67-39.32,20.67s-32.85-6.76-41.67-20.35c-8.81-13.54-13.25-44.05-13.25-91.51v-142.36c0-42.91,3.96-71.06,11.88-84.38,7.9-13.34,20.9-20,38.97-20s32.06,6.91,40.68,20.65c8.59,13.82,12.87,41.69,12.87,83.73v140.33Z"/>
      <path class="cls-2" d="m1300.32,2014.74c-.25-3.84-.54-7.65-1.02-11.44-.45-3.79-1.09-7.97-1.96-12.5-.84-4.53-1.83-9.11-3-13.82-1.14-4.65-2.23-8.62-3.22-11.91l-3.42-10.79c-2.4-7.55-4.18-13.27-5.3-17.11-1.14-3.86-2.01-7.35-2.72-10.6-.69-3.19-1.16-6.02-1.41-8.42-.22-2.4-.37-4.85-.37-7.38,0-5.42.82-9.98,2.43-13.62,1.61-3.66,3.64-5.47,6.09-5.47,1.71,0,3.74.92,6.14,2.72,2.38,1.83,5,5.08,7.87,9.73-.47-18.15-.77-30.85-.87-38.1-.07-4.04-.15-8.29-.2-12.82-10.4-3.42-20.23-7.18-29.59-11.41-.97,1.44-1.88,3.09-2.8,5-2.25,4.68-4.01,10.25-5.37,16.69-1.34,6.44-2.35,13.32-3.05,20.7-.64,7.4-.97,14.9-.97,22.6,0,6.44.2,12.53.59,18.3.45,5.69,1.14,11.36,2.05,16.91.92,5.55,2.2,11.54,3.86,17.97.84,3.17,2.25,8.27,4.33,15.3l8.86,31.05c.79,2.9,1.41,5.6,1.86,8.05.45,2.45.77,4.65.89,6.64.17,1.93.25,3.99.25,6.12,0,6.34-.79,11.07-2.43,14.31-1.61,3.19-3.79,4.83-6.51,4.83-2.05,0-4.48-1.26-7.2-3.71-2.77-2.45-5.89-6.83-9.41-13.12.54,16.12.99,37.63,1.41,64.5,7.72,5.92,14.16,8.91,19.19,8.91,3.29,0,6.44-1.31,9.41-3.96,2.95-2.67,5.65-7.3,8.12-13.94,2.5-6.61,4.41-15.05,5.72-25.35,1.36-10.25,2.05-21.07,2.05-32.46,0-4.38-.15-8.54-.35-12.38"/>
      <path class="cls-2" d="m1380.52,2070.25l-13.96-151.7-4.36-50.43c-10.2-1.63-20.03-3.54-29.54-5.72-.15,1.19-.27,2.33-.42,3.34l-2.57,20.62-24.26,184.3-3.91,27.23c5.3-.25,9.16-.37,11.54-.37,1.29,0,4.85.12,10.67.37,2.95-26.76,5.77-51.2,8.49-73.43h23.62c2.57,28.15,4.56,52.64,5.97,73.43,5.1-.25,8.94-.37,11.59-.37,1.16,0,4.43.12,9.88.37l-2.72-27.66Zm-42.68-100.82l3.37-27.95c1.46-11.83,3.19-27.04,5.27-45.51.35,4.53,2.33,28.99,5.97,73.46h-14.61Z"/>
      <path class="cls-2" d="m1391.04,1871.94c-.1,54.17-.99,129.46-2.7,225.97,5.82-.25,9.68-.37,11.54-.37l9.66.37c0-21.69.1-47.91.27-78.61.2-30.73.5-63.75.94-99.06.2-14.93.45-30.43.72-46.42-6.93-.52-13.74-1.14-20.43-1.88"/>
      <path class="cls-2" d="m1472.74,1875.65c-.07,12.18-.25,26.62-.37,43.3-.35,38.23-.72,67.94-1.06,89.16l-2.8-21.59-15.1-110.94c-9.93-.12-19.63-.47-29.09-.99l-.45,48.85-1.86,134.74-.94,39.74c4.73-.25,7.97-.37,9.66-.37,2.05,0,5,.12,8.89.37l.47-75.54.99-89.7c1.54,12.23,3.05,23.45,4.48,33.7,2.15,16.14,4.58,33.05,7.18,50.73l7.85,53.92c.79,5.57,2.01,14.53,3.61,26.89,5.2-.25,9.28-.37,12.23-.37,3.54,0,7.35.12,11.41.37l.3-45.21,2.1-156.67.4-20.72c-5.89.17-11.83.32-17.9.35"/>
      <path class="cls-2" d="m1497.28,1875.07v1.46l-.25,21,20-2.08c-.32,73.68-1.26,141.15-2.8,202.45,5.84-.22,9.43-.37,10.79-.37,1.49,0,4.78.15,9.93.37,0-15.72.1-36.35.27-61.85.2-25.5.47-51.77.82-78.83.25-18.89.62-39.49,1.09-61.77h3.27c4.36,0,9.88.69,16.59,2.08,0-3.29,0-8.2.05-14.71.05-3.69.07-7.95.15-12.75-18.89,2.53-38.87,4.18-59.92,5"/>
      <path class="cls-2" d="m1556.16,2023.73c.37-18.35.59-35.9.69-52.59,4.46.5,8.64.74,12.6.74s8.2-.25,12.63-.74c-.4,16.32-.62,33.85-.72,52.59-4.43-.37-8.64-.57-12.63-.57s-8.17.2-12.58.57"/>
      <path class="cls-2" d="m1665.65,1841.64c-8.72,3.81-17.85,7.28-27.36,10.42-.42,5.55-.77,10.03-1.04,13.39-.45,5.62-1.54,17.5-3.22,35.68-1.68,18.15-3.09,34.36-4.23,48.63-1.11,14.26-2.38,31.27-3.74,51.1-1.36-28.92-2.38-49.29-3.02-61.23-.69-11.93-1.58-26.02-2.7-42.36-1.09-16.34-1.81-27.33-2.08-32.93-.1-1.81-.17-3.84-.27-6.19-8.79,2.35-17.9,4.48-27.31,6.39l-1.04,62.52-2.87,132.61-1.19,38.23c4.04-.22,6.86-.37,8.47-.37,1.16,0,3.94.15,8.24.37l.15-24.19,1.56-107.48,1.19-52.41c.35,7.92.62,13.47.74,16.64.17,3.17.32,5.82.45,7.97l3.37,55.41,5.79,104.06c4.01-.22,6.98-.37,8.91-.37,1.53,0,4.36.15,8.42.37l8.84-107.45,6.16-77c.07,9.19.1,16.39.1,21.54,0,11.88-.2,39.14-.57,81.83-.37,42.73-.72,69.72-.97,81.08,3.52-.22,6.49-.37,8.86-.37,1.66,0,4.56.15,8.72.37-.07-12.21-.1-20.67-.1-25.35,0-22.43.2-63.56.62-123.37.15-30.01.57-65.86,1.11-107.53"/>
      <path class="cls-2" d="m1675.42,2097.9c1.81-101.29,2.7-179.23,2.7-233.85l-.05-24.41c5.5.25,9.16.37,10.99.37.87,0,4.23-.12,10.13-.37-.57,28.37-1.04,55.24-1.39,80.59-.42,35.33-.74,68.33-.94,99.06-.17,30.7-.27,56.92-.27,78.61l-9.63-.37c-1.88,0-5.72.12-11.54.37"/>
      <path class="cls-2" d="m1763.59,2034.9c-.37,7.43-.82,17.75-1.36,31.02-.52,13.27-.89,23.55-1.09,30.85-6.68,4.04-12.65,6.07-17.93,6.07s-9.78-2.57-14.16-7.68c-4.36-5.1-8.37-13.49-12.01-25.15-3.64-11.66-6.26-25.4-7.82-41.15-1.56-15.77-2.35-33.42-2.35-52.98,0-22.83,1.06-43.35,3.17-61.6,2.13-18.22,5.15-33.42,9.11-45.58,3.96-12.18,8.32-20.9,13.02-26.12,4.73-5.22,9.61-7.85,14.66-7.85,4.63,0,10.37,2.4,17.18,7.18l.1,15.9c.05,6.93.15,14.58.27,22.9l.32,21.56c-3.64-3.52-6.61-5.92-8.89-7.18s-4.38-1.91-6.31-1.91c-4.23,0-8.02,3.42-11.41,10.23-3.37,6.81-6.04,16.71-7.97,29.71-1.96,12.97-2.9,27.36-2.9,43.13,0,14.38.79,26.71,2.43,36.99,1.63,10.27,3.84,18.22,6.59,23.84,2.77,5.62,6.19,8.42,10.27,8.42,2.23,0,4.63-.72,7.25-2.18,2.6-1.46,5.89-4.26,9.83-8.42"/>
      <path class="cls-2" d="m1772.75,2097.9l1.81-103.29.84-75.32.25-33.5c.05-9.71.1-19.04.1-28l-.05-18.15c4.9.25,8.59.37,11.04.37,1.91,0,5.22-.12,9.95-.37-.74,36.2-1.21,68.16-1.44,95.92h25.55c.15-10.35.32-24.36.45-41.99.15-17.63.22-29.66.22-36.1,0-3.42-.05-9.36-.1-17.83l11.12.37c1.14,0,4.43-.12,9.83-.37-1.11,64.82-1.83,113.05-2.13,144.64-.32,31.59-.47,69.47-.47,113.62l-10.25-.37c-1.53,0-5.2.12-10.99.37.79-30.03,1.31-64.97,1.61-104.83h-25.58l-.79,104.83-10.92-.37c-1.36,0-4.73.12-10.05.37"/>
      <path class="cls-2" d="m1851.2,2097.9c.79-32.53,1.36-59.79,1.71-81.73.37-21.96.74-51.13,1.09-87.52.37-36.4.54-60.51.54-72.37l-.05-16.64c7.38.25,16.32.37,26.81.37,9.66,0,18.2-.12,25.58-.37l-.1,6.21c-.02,1.51-.1,6.98-.22,16.42l-.3,20.55c-.05,4.41-.07,8.86-.07,13.39-6.04-1.02-11.12-1.51-15.23-1.51-4.51,0-7.55.02-9.14.07-1.56.07-4.04.37-7.38.87l-.57,43.53c3.69.37,8,.54,12.9.54,1.76,0,6.44-.42,14.01-1.31-.32,16.14-.62,35.38-.89,57.71-5.42-.27-9.58-.4-12.5-.4-4.31,0-9.14.45-14.48,1.34l-.57,45.98h5.4c1.61,0,4.9-.2,9.9-.57l9.71-.94c1.44-.12,3.86-.64,7.23-1.51-.37,18.67-.67,37.96-.94,57.89-7.63-.25-15.99-.37-25.11-.37l-20.67.17-6.66.2Z"/>
      <path class="cls-2" d="m1914.16,2097.9c.79-29.76,1.36-54.05,1.71-72.84.64-34.32,1.14-68.41,1.49-102.28.32-33.87.5-61.57.5-83.14,4.23.25,8.02.37,11.29.37,2.23,0,5.42-.12,9.58-.37l-1.14,68.48-1.41,107.08-.2,26.32c5.4.37,8.91.57,10.52.57,8.24,0,14.48-.45,18.72-1.34l-1.04,57.14c-8.24-.25-16.07-.37-23.52-.37-10.08,0-18.92.12-26.49.37"/>
      <path class="cls-2" d="m2043.17,1870.27l-15.9,140.36-2.15,21.74c-1.02-15-1.86-27.19-2.55-36.52l-6.91-89.55c-1.56-19.83-2.62-33.5-3.19-41.1-.05-.64-.1-1.29-.15-2.01-7.2-1.93-14.19-4.06-20.92-6.34l7.48,84.97,11.44,133,1.78,23.08c5.82-.22,9.76-.37,11.83-.37,2.28,0,6.04.15,11.31.37,1.93-17.28,3.66-32.24,5.22-44.84l16.22-129.41c2.25-17.9,4.36-34.56,6.36-49.94-6.78-1.06-13.42-2.18-19.88-3.44"/>
      <path class="cls-2" d="m2070.68,1874.8c-.07,13.15-.25,31.12-.45,53.85-.37,36.4-.74,65.56-1.09,87.52-.37,21.96-.94,49.2-1.73,81.73l6.66-.2,20.67-.17c9.14,0,17.5.15,25.13.37.22-19.91.54-39.22.92-57.91-3.37.89-5.79,1.41-7.23,1.53l-9.68.92c-5.03.42-8.32.59-9.93.59h-5.37l.54-46c5.35-.84,10.18-1.29,14.51-1.29,2.9,0,7.08.1,12.5.37.27-22.33.57-41.55.87-57.69-7.58.87-12.26,1.29-13.99,1.29-4.93,0-9.21-.17-12.92-.54l.57-43.55c3.34-.47,5.82-.77,7.38-.84,1.61-.02,4.63-.07,9.14-.07,4.11,0,9.19.5,15.23,1.51,0-4.53.02-8.99.1-13.37l.02-3.12c-18.17-1.02-35.48-2.67-51.84-4.93"/>
      <path class="cls-2" d="m2187.68,1952.51c1.16-6.51,1.98-13.44,2.53-20.82.54-7.4.82-15.3.82-23.74,0-7.58-.27-14.66-.77-21.29-.12-2.05-.3-4.06-.5-5.94-6.26.25-12.6.35-19.04.35-12.68,0-25.06-.22-36.99-.74-.05,6.71-.07,13.89-.1,21.47-.12,26.05-.32,50.8-.54,74.28-.27,23.47-.54,44.1-.94,61.87-.32,17.8-.79,37.78-1.39,59.97,4.73-.22,8-.37,9.8-.37,1.61,0,4.98.15,10.23.37.1-35.8.3-72.32.59-109.53.32-37.21.64-68.75,1.06-94.6,1.56-.15,2.92-.27,4.11-.47,1.16-.22,2.33-.27,3.42-.27,3.22,0,5.62.97,7.16,3.02,1.56,2.01,2.67,5.08,3.39,9.16.72,4.11,1.09,8.84,1.09,14.29,0,6.44-.47,12.53-1.44,18.35-.94,5.79-2.38,10.08-4.21,12.87-1.88,2.77-3.96,4.16-6.24,4.16-1.63,0-3.29-.62-4.98-1.91l4.85,53.55c1.46,16.17,2.57,28.7,3.34,37.63.37,4.06.79,9.8,1.34,17.23,1.34,17.8,2.23,29.96,2.72,36.52,5.15-.22,8.84-.37,11.07-.37,1.81,0,5.27.15,10.42.37-.72-7.08-1.19-11.79-1.49-14.19l-6.31-55.41c-.77-6.96-1.49-13.77-2.18-20.48l-2.45-24.02c3.14-4.9,5.55-9.76,7.28-14.48,1.76-4.73,3.22-10.3,4.33-16.81"/>
      <path class="cls-2" d="m2245.78,1875.68l-15.28,134.94-2.18,21.76c-.99-15.03-1.86-27.21-2.53-36.54l-6.96-89.55c-.84-10.92-1.56-19.98-2.13-27.16-6.61.57-13.27,1.01-20.05,1.34l5.42,61.38,11.46,132.98,1.73,23.08c5.82-.22,9.78-.37,11.88-.37,2.25,0,5.99.15,11.27.37,1.93-17.28,3.66-32.24,5.25-44.81l16.19-129.44c2.35-18.54,4.53-35.73,6.61-51.57-6.81,1.36-13.69,2.55-20.7,3.61"/>
      <path class="cls-2" d="m2273.56,1870.58c-.07,54.27-.97,130.03-2.7,227.33,5.79-.25,9.68-.37,11.54-.37l9.61.37c0-21.69.1-47.91.32-78.61.15-30.73.47-63.75.92-99.06.22-17.53.54-35.78.87-54.74-6.73,1.88-13.57,3.59-20.55,5.08"/>
      <path class="cls-2" d="m2321.8,1856.79c-4.93,1.78-9.93,3.44-15,5,0,13.15-.17,35.4-.52,66.85-.35,36.4-.72,65.59-1.06,87.52-.37,21.96-.94,49.2-1.73,81.75l6.68-.22,20.65-.17c9.09,0,17.48.15,25.13.4.25-19.93.54-39.22.92-57.91-3.37.89-5.79,1.39-7.2,1.54l-9.71.92c-5,.4-8.32.57-9.9.57h-5.42l.57-45.98c5.35-.87,10.2-1.31,14.51-1.31,2.9,0,7.06.12,12.48.4.3-22.33.57-41.57.92-57.71-7.6.89-12.26,1.29-13.99,1.29-4.95,0-9.24-.17-12.95-.54l.57-43.53c3.34-.5,5.82-.79,7.4-.87,1.56-.02,4.63-.05,9.11-.05,4.13,0,9.19.47,15.23,1.49,0-4.53.02-8.99.1-13.37l.27-20.57c.12-9.41.2-14.9.25-16.39l.1-5.72c-11.93,6.44-24.39,11.98-37.39,16.64"/>
      <path class="cls-2" d="m2366.83,2097.9c.59-22.21,1.06-42.19,1.41-59.99.35-17.78.64-38.4.89-61.85.25-23.47.45-48.23.57-74.28.12-26.05.2-46.77.2-62.14,3.89.37,7.06.57,9.48.57s5.55-.3,9.14-.87c3.61-.57,7.11-.84,10.52-.84,4.01,0,7.58.62,10.7,1.88,2.35.89,4.48,2.72,6.41,5.5,1.93,2.77,3.54,6.14,4.88,10.13,1.31,3.96,2.4,8.42,3.27,13.34.89,4.9,1.56,10.67,2.05,17.31.47,6.61.72,13.72.72,21.27,0,8.47-.27,16.39-.79,23.77-.54,7.38-1.36,14.31-2.53,20.8-1.14,6.51-2.57,12.11-4.31,16.84-1.73,4.73-4.18,9.56-7.3,14.48l2.45,24.02c.67,6.71,1.41,13.52,2.2,20.45l6.29,55.43c.27,2.4.77,7.13,1.51,14.19-5.17-.25-8.64-.37-10.42-.37-2.25,0-5.94.12-11.07.37-.52-6.56-1.41-18.74-2.72-36.52-.54-7.43-.99-13.17-1.39-17.21-.74-8.96-1.86-21.52-3.32-37.66l-4.85-53.55c1.68,1.26,3.34,1.91,4.98,1.91,2.28,0,4.36-1.39,6.21-4.16,1.88-2.77,3.27-7.08,4.23-12.87.97-5.79,1.44-11.93,1.44-18.35,0-5.42-.37-10.2-1.09-14.29-.72-4.11-1.86-7.16-3.39-9.19-1.56-2.01-3.94-3.02-7.16-3.02-1.11,0-2.25.1-3.42.27-1.16.2-2.55.35-4.11.47-.4,25.87-.74,57.42-1.06,94.6-.3,37.21-.5,73.73-.59,109.56-5.25-.25-8.64-.37-10.2-.37-1.81,0-5.1.12-9.83.37"/>
      <path class="cls-2" d="m2433.74,2093.93c-.42-26.86-.87-48.38-1.41-64.52,3.52,6.31,6.64,10.7,9.38,13.15,2.75,2.45,5.15,3.69,7.23,3.69,2.72,0,4.9-1.61,6.51-4.83,1.61-3.22,2.43-7.97,2.43-14.29,0-2.13-.07-4.18-.25-6.14-.15-1.96-.45-4.16-.89-6.64-.45-2.45-1.06-5.13-1.88-8.02l-8.84-31.02c-2.08-7.08-3.52-12.18-4.33-15.35-1.66-6.41-2.95-12.4-3.89-17.95-.92-5.57-1.58-11.22-2.03-16.96-.42-5.72-.62-11.81-.62-18.25,0-7.7.35-15.23,1.02-22.6.67-7.38,1.68-14.29,3.02-20.72,1.34-6.44,3.12-11.98,5.35-16.64,2.23-4.68,4.61-7.87,7.13-9.56,2.55-1.71,5.15-2.55,7.85-2.55,5.3,0,11.04,2.45,17.28,7.38.1,8.69.2,16.66.32,23.92.12,7.25.42,19.98.89,38.13-2.87-4.65-5.5-7.92-7.87-9.73-2.38-1.83-4.43-2.75-6.16-2.75-2.43,0-4.46,1.83-6.07,5.47-1.61,3.66-2.43,8.22-2.43,13.62,0,2.55.12,5,.37,7.4.25,2.38.72,5.2,1.41,8.42.69,3.19,1.61,6.73,2.72,10.6,1.14,3.84,2.9,9.56,5.3,17.11l3.39,10.79c.99,3.27,2.08,7.25,3.24,11.91,1.16,4.68,2.15,9.28,3,13.82.84,4.53,1.51,8.71,1.96,12.5.45,3.76.79,7.58,1.02,11.44.2,3.84.32,7.97.32,12.38,0,11.36-.67,22.18-2.03,32.46-1.34,10.27-3.24,18.72-5.72,25.35-2.48,6.61-5.2,11.27-8.15,13.91-2.97,2.65-6.09,3.96-9.36,3.96-5.08,0-11.49-2.97-19.21-8.89"/>
      <path class="cls-2" d="m2166.68,1339.9c.22-1.41.25-3.66.25-5.72.15-14.76-7.2-24.07-21.04-24.07-12.75-.02-19.09,8.79-19.09,22.21,0,3.76.32,6.19.59,7.58h39.29Z"/>
      <path class="cls-2" d="m2143.28,1417.03v-6.49c0-7.43-3.24-11.91-8.57-11.91-5.72,0-8.29,4.43-8.29,11.07,0,4.06.25,6.24.5,7.33h16.37Z"/>
      <path class="cls-2" d="m2146.84,947.38c-11.09,0-20.4,6.39-20.4,17.28s9.16,17.31,20.62,17.31,20.23-6.66,20.23-17.33-8.74-17.26-20.45-17.26"/>
      <path class="cls-2" d="m2145.88,1670.97c-12.73-.05-19.09,8.79-19.09,22.21,0,3.74.32,6.19.62,7.58h39.27c.25-1.41.25-3.69.25-5.72.15-14.76-7.18-24.07-21.04-24.07"/>
      <path class="cls-2" d="m2146.84,1483.31c-11.09,0-20.4,6.39-20.4,17.28s9.16,17.31,20.62,17.31,20.23-6.66,20.23-17.33-8.74-17.26-20.45-17.26"/>
      <path class="cls-2" d="m2221.54,1110.24c-.74-.45-1.63-.72-2.9-.72-10.05,0-17.75,3.71-17.75,12.03,0,6.81,5.97,11.61,14.31,11.61,7.33,0,12.5-4.46,12.5-11.34,0-5.32-2.62-9.51-6.16-11.59"/>
      <path class="cls-2" d="m2143.28,881.11v-6.49c0-7.43-3.24-11.91-8.57-11.91-5.72,0-8.29,4.43-8.29,11.07,0,4.06.25,6.24.5,7.33h16.37Z"/>
      <path class="cls-2" d="m2464.14,884.1c-8.39-37.95-24.31-72.1-47.81-102.38-23.47-30.26-59-55.93-106.44-76.93-47.46-21.05-101.24-31.52-161.33-31.52-73.66,0-136.37,15.15-188.12,45.41-23.32,13.62-43.13,29.24-59.4,46.92,1.93.77,3.79,1.58,5.52,2.4,15.1,5.17,32.43,19.34,46.3,39.44,14.98,21.81,21.99,44.96,19.93,61.3.07-.05.15,0,.15.17-.15,3.42,2.03,17.26,3.81,20.65.94,1.78,3.89,5.37,5.45,7.97,1.91,1.76,6.66,5.92,8.07,7.18.92.84,6.12,3.84,8.44,5.62.47.27.82.62,1.02.99.02.02.07.07.07.07v.02c.05.17.17.35.2.52.22,1.39-1.24,2.92-3.69,4.06-.99.69-2.9,1.51-5.17,2.15-1.39.42-2.65.67-3.74.82-1.83.52-4.58,1.06-7.8,1.44-3.39.4-6.44.54-8.29.45-.17,0-.35.02-.52.02-2.62,0-8.44-.72-10.65-1.56-.02,0-.07-.05-.1-.05-2.45-.45-4.68-1.29-6.61-2.43-.82-.4-1.93-.89-3.14-1.49-.05-.02-.12-.02-.15-.05-2.18-.99-4.58-1.98-5.94-1.98-.1,0-.2-.05-.3-.05h-.02c-.35.05-2.45.05-3.24,2.13-.82,2.23-1.19,3.64-1.44,4.38-.22,1.98-.57,4.16-1.09,6.46-.05.27-.1.52-.17.77-.1,1.41-.87,5.03-.97,5.42-.25,1.06-.05,2.75-.05,4.48,0,.99.79,2.55,1.36,3.29.05.02.05.1.07.15.1.12.22.25.35.4,5.37,7.82-3.24,23.15-19.34,34.93-2.8,2.77-6.76,6.46-10.79,11.17-6.44,7.5-11.14,16.27-13.05,18.25-1.98,3.05-4.18,5.65-6.64,7.65-3.76,4.75-12.65,7.45-23.05,4.8-6.54-1.66-11.91-2.1-16.37-1.91,20.92,23.92,45.93,71.03,66.03,127.78,5.72,16.07,10.62,31.82,14.71,46.82h.05c1.63,4.11,33.89,109.95,33.89,234.42,0,17.85-.5,35.26-1.54,51.94.59,13.44.89,28.55.89,44.79,0,33.75,3.89,170.69,5.08,252.61,11.51,6.16,23.82,11.51,36.94,16.07,43.35,15.15,97.82,22.7,163.36,22.7,49.74,0,94.68-7.2,134.91-21.66,40.23-14.48,74.57-38.2,103.05-71.18,28.47-33,47.21-68.46,56.25-106.41,9.04-38,13.57-98.56,13.57-181.68v-366.08c0-83.16-4.21-143.72-12.53-181.68m-268.33-82.15h36.62v-8.24h6.24v8.24h16.04v7.5h-16.04v27.38h-5.25l-37.61-26.29v-8.59Zm16.14,42.46c10.87,0,19.66,7.9,31.62,20.3l4.33,4.7h.2v-26.44h6.61v37.58h-4.9l-6.07-6.24c-14.31-15.05-21.91-21.84-30.8-21.94-5.97,0-11.51,2.9-11.51,11.69,0,5.35,2.72,9.8,5,12.5l-5.62,2.55c-3.44-4.09-5.99-9.88-5.99-16.69,0-12.68,8.69-18.02,17.13-18.02m42.76,217.65v7.53h-16.04v27.36h-5.25l-37.61-26.27v-8.62h36.62v-8.24h6.24v8.24h16.04Zm-16.04-38.95v27.36h-5.25l-37.61-26.27v-8.62h36.62v-8.24h6.24v8.24h16.04v7.53h-16.04Zm-18.2-42.83h5.89v22.38h-5.89v-22.38Zm29.34-6.78l-6.07-6.26c-14.31-15.03-21.91-21.84-30.8-21.91-5.97,0-11.51,2.9-11.51,11.69,0,5.35,2.72,9.78,5,12.5l-5.62,2.53c-3.44-4.09-5.99-9.88-5.99-16.66,0-12.7,8.69-18.02,17.13-18.02,10.87,0,19.66,7.87,31.62,20.28l4.33,4.73h.2v-26.47h6.61v37.61h-4.9Zm-133.47-176.83h11.64v26.86h12.31v-25.33h11.64v25.33h13.84v-28.25h11.66v42.71h-61.08v-41.32Zm4.41,57.66c2.72-3.61,7.08-5.92,12.82-5.92,8.15,0,13.37,6.31,14.93,11.24h.32c1.73-4.26,5.84-6.73,11.12-8.42,6.96-2.1,15.05-4.04,17.48-5.25v14.71c-1.81.99-6.29,2.58-14.11,4.58-7.65,1.91-9.66,4.68-9.76,10.94v4.88h23.87v14.31h-60.26c-.74-4.68-1.36-11.86-1.36-20.15,0-9.9,1.53-16.41,4.95-20.92m56.67,68.06h-61.08v-14.43h61.08v14.43Zm-64.32,193.61l-11.51-7.68v-15.33l11.51,11.09v11.91Zm64.03,599.19h-59.97c-.87-5.79-1.36-13.15-1.36-20.8,0-12.9,2.25-21.19,6.93-27.68,4.73-6.73,11.98-11.14,22.43-11.14,11.49,0,19.36,4.58,24.36,10.65,5.82,7.18,8.57,18.3,8.57,31.32,0,8.32-.45,13.89-.97,17.65m-34.71-154.54l-26.07-8.94v-15.25l61.08,22.73v17.08l-61.08,21.56v-15.77l25.67-8.42c7.5-2.5,14.24-4.56,22.01-6.31v-.17c-7.38-1.81-14.61-4.11-21.61-6.51m-14.43,43.95v26.86h12.31v-25.33h11.64v25.33h13.84v-28.27h11.66v42.71h-61.08v-41.3h11.64Zm19.51-71.35c-18.79,0-32.24-13.47-32.24-32.93s13.3-32.33,31.17-32.33c19.04,0,32.06,13.39,32.06,33.33s-13.37,31.94-31,31.94m-11.41-361.85l-19.73-7.03v-19.91l61.08-3.12v14.34l-24.04.92c-7.92.27-17.03.52-26.79.52v.25c8.24,2.23,17.31,5.1,25.35,7.8l24.46,8.19v11.51l-24.31,7.08c-7.92,2.23-16.96,4.38-25.5,6.09v.2c8.86.32,18.87.64,26.99,1.04l23.84,1.16v13.64l-61.08-3.74v-20.38l19.86-6.31c6.76-2.01,14.73-4.01,21.99-5.47v-.32c-7.18-1.91-15.62-4.23-22.11-6.46m0-135.48l-19.73-7.06v-19.88l61.08-3.14v14.36l-24.04.89c-7.92.27-17.03.52-26.79.52v.25c8.24,2.23,17.31,5.13,25.35,7.8l24.46,8.19v11.51l-24.31,7.08c-7.92,2.23-16.96,4.41-25.5,6.12v.17c8.86.35,18.87.64,26.99,1.04l23.84,1.16v13.64l-61.08-3.74v-20.38l19.86-6.31c6.76-2.01,14.73-4.01,21.99-5.45v-.35c-7.18-1.91-15.62-4.21-22.11-6.44m-8.1,52.76v26.89h12.31v-25.33h11.64v25.33h13.84v-28.27h11.66v42.71h-61.08v-41.32h11.64Zm0,155.06v26.86h12.31v-25.33h11.64v25.33h13.84v-28.25h11.66v42.71h-61.08v-41.32h11.64Zm-5.25,62.12c4.73-6.71,11.98-11.12,22.43-11.12,11.49,0,19.36,4.58,24.36,10.62,5.82,7.18,8.57,18.3,8.57,31.34,0,8.32-.45,13.89-.97,17.63h-59.97c-.87-5.79-1.36-13.15-1.36-20.8,0-12.87,2.25-21.19,6.93-27.68m-1.98,84.4c2.72-3.61,7.08-5.92,12.82-5.92,8.15,0,13.37,6.31,14.93,11.24h.32c1.73-4.28,5.84-6.76,11.12-8.42,6.96-2.13,15.05-4.04,17.48-5.27v14.73c-1.81.99-6.29,2.55-14.11,4.56-7.65,1.93-9.66,4.7-9.76,10.97v4.88h23.87v14.31h-60.26c-.74-4.68-1.36-11.86-1.36-20.15,0-9.9,1.53-16.42,4.95-20.92m56.67,68.06h-61.08v-14.43h61.08v14.43Zm-29.93-461.01c-18.79,0-32.24-13.44-32.24-32.93s13.3-32.33,31.17-32.33c19.04,0,32.06,13.39,32.06,33.33s-13.37,31.94-31,31.94m107.23,172.52h-51.47v.2l5.55,10.23-6.09,1.54-6.88-12.85v-6.81h58.9v7.7Zm-5.62-33.77c.17-1.71,0-3.71-.27-6.44-.64-4.61-2.55-8.96-5.69-12.33-3.54-3.89-8.71-6.68-15.67-7.77v.27c3.99,3.27,6.34,7.97,6.34,13.86,0,10.6-7.97,17.38-18.05,17.38-11.12,0-20.92-8.07-20.92-20.1s9.8-19.49,24.83-19.49c12.95,0,22.01,4.36,27.63,10.15,4.43,4.53,7.16,10.77,7.87,17.13.45,2.9.54,5.42.45,7.33h-6.51Zm-23.64-208.22c-19.76,0-30.63-8.52-30.63-20.48s11.07-19.49,29.81-19.49c20.03,0,31.07,7.43,31.07,20.48,0,11.51-10.77,19.31-30.25,19.48"/>
      <path class="cls-2" d="m2203.51,809.19v.27c3.44,1.81,5.99,3.27,8.71,4.9l20,14.38h.17v-19.29h-19.66c-3.07,0-6.14-.1-9.23-.27"/>
      <path class="cls-2" d="m2203.51,1069.31v.27c3.44,1.81,5.99,3.27,8.71,4.9l20,14.38h.17v-19.29h-19.66c-3.07,0-6.14-.1-9.23-.27"/>
      <path class="cls-2" d="m2203.51,1022.84v.27c3.44,1.81,5.99,3.27,8.71,4.9l20,14.38h.17v-19.29h-19.66c-3.07,0-6.14-.1-9.23-.27"/>
      <path class="cls-2" d="m2224.98,895.86c-14.48,0-24.02,3.71-24.02,11.96,0,6.98,8.52,12.06,24.56,12.06s24.02-4.7,24.02-11.96c0-8.17-9.53-12.06-24.56-12.06"/>
    </g>
  </g>
</svg>