<svg width="25" height="25" viewBox="0 0 25 25" fill="none" xmlns="http://www.w3.org/2000/svg">
<mask id="mask0_193_84" style="mask-type:alpha" maskUnits="userSpaceOnUse" x="0" y="0" width="25" height="25">
<rect x="0.5" y="0.47998" width="24" height="24" fill="#D9D9D9"/>
</mask>
<g mask="url(#mask0_193_84)">
<path d="M5.5 22.48C4.95 22.48 4.47917 22.2841 4.0875 21.8925C3.69583 21.5008 3.5 21.03 3.5 20.48V9.20498C3.2 9.02165 2.95833 8.78415 2.775 8.49248C2.59167 8.20081 2.5 7.86331 2.5 7.47998V4.47998C2.5 3.92998 2.69583 3.45915 3.0875 3.06748C3.47917 2.67581 3.95 2.47998 4.5 2.47998H20.5C21.05 2.47998 21.5208 2.67581 21.9125 3.06748C22.3042 3.45915 22.5 3.92998 22.5 4.47998V7.47998C22.5 7.86331 22.4083 8.20081 22.225 8.49248C22.0417 8.78415 21.8 9.02165 21.5 9.20498V20.48C21.5 21.03 21.3042 21.5008 20.9125 21.8925C20.5208 22.2841 20.05 22.48 19.5 22.48H5.5ZM5.5 9.47998V20.48H19.5V9.47998H5.5ZM4.5 7.47998H20.5V4.47998H4.5V7.47998ZM9.5 14.48H15.5V12.48H9.5V14.48Z" fill="#1C1C1C"/>
</g>
</svg>
