<svg width="25" height="25" viewBox="0 0 25 25" fill="none" xmlns="http://www.w3.org/2000/svg">
<mask id="mask0_193_79" style="mask-type:alpha" maskUnits="userSpaceOnUse" x="0" y="0" width="25" height="25">
<rect x="0.5" y="0.47998" width="24" height="24" fill="#D9D9D9"/>
</mask>
<g mask="url(#mask0_193_79)">
<path d="M12.4996 22.48C9.91623 22.48 7.67456 21.6216 5.77456 19.905C3.87456 18.1883 2.79956 16.0466 2.54956 13.48H4.57456C4.82456 15.4966 5.70373 17.1675 7.21206 18.4925C8.72039 19.8175 10.4829 20.48 12.4996 20.48C14.7329 20.48 16.6246 19.705 18.1746 18.155C19.7246 16.605 20.4996 14.7133 20.4996 12.48C20.4996 10.2466 19.7246 8.35498 18.1746 6.80498C16.6246 5.25498 14.7329 4.47998 12.4996 4.47998C11.0662 4.47998 9.73706 4.83415 8.51206 5.54248C7.28706 6.25081 6.31623 7.22998 5.59956 8.47998H8.49956V10.48H2.69956C3.18289 8.14665 4.34123 6.22998 6.17456 4.72998C8.00789 3.22998 10.1162 2.47998 12.4996 2.47998C13.8829 2.47998 15.1829 2.74248 16.3996 3.26748C17.6162 3.79248 18.6746 4.50498 19.5746 5.40498C20.4746 6.30498 21.1871 7.36331 21.7121 8.57998C22.2371 9.79665 22.4996 11.0966 22.4996 12.48C22.4996 13.8633 22.2371 15.1633 21.7121 16.38C21.1871 17.5966 20.4746 18.655 19.5746 19.555C18.6746 20.455 17.6162 21.1675 16.3996 21.6925C15.1829 22.2175 13.8829 22.48 12.4996 22.48ZM15.2996 16.68L11.4996 12.88V7.47998H13.4996V12.08L16.6996 15.28L15.2996 16.68Z" fill="white"/>
</g>
</svg>
